<svg xmlns="http://www.w3.org/2000/svg" xmlns:svgjs="http://svgjs.com/svgjs" xmlns:xlink="http://www.w3.org/1999/xlink" width="288" height="288"><svg xmlns="http://www.w3.org/2000/svg" width="288" height="288" viewBox="0 0 24 24"><path fill="#fff" d="M22,5H17V2a1,1,0,0,0-1-1H8A1,1,0,0,0,7,2V5H2A1,1,0,0,0,1,6V20a3,3,0,0,0,3,3H20a3,3,0,0,0,3-3V6A1,1,0,0,0,22,5ZM9,3h6V5H9ZM3,7H21v5a3,3,0,0,1-3,3H17V12a1,1,0,0,0-2,0v3H9V12a1,1,0,0,0-2,0v3H6a3,3,0,0,1-3-3ZM15,17v4H9V17ZM3,20V16a4.92,4.92,0,0,0,3,1H7v4H4A1,1,0,0,1,3,20Zm17,1H17V17h1a4.92,4.92,0,0,0,3-1v4A1,1,0,0,1,20,21Z" class="color000 svgShape"/></svg></svg>