<svg xmlns="http://www.w3.org/2000/svg" xmlns:svgjs="http://svgjs.com/svgjs" xmlns:xlink="http://www.w3.org/1999/xlink" width="288" height="288"><svg xmlns="http://www.w3.org/2000/svg" width="288" height="288" viewBox="0 0 32 32"><g style="line-height:125%" fill="#fff" class="color000 svgShape"><path d="M12.844 12.146 6.408 5.711l.278-.277a.5.5 0 0 0 .14-.424l-.209-1.47a.5.5 0 0 0-.205-.337l-2.941-2.1a.5.5 0 0 0-.28-.095v.002a.5.5 0 0 0-.363.146l-1.682 1.68a.5.5 0 0 0-.052.644l2.1 2.942a.5.5 0 0 0 .335.205L5 6.836a.5.5 0 0 0 .426-.14l.275-.278 6.436 6.436zM24.47 2.102c.168.01.337.033.506.033l-1.905 1.904a.511.511 0 0 0-.119.512l.793 2.379c.049.146.17.267.317.316l2.378.793c.176.058.382.01.512-.121l1.902-1.902c-.009 1.029-.282 2.04-1.029 2.787-1.042 1.04-2.506 1.367-3.836 1.015a.51.51 0 0 0-.482.131L9.939 23.518a.51.51 0 0 0-.13.482c.351 1.33.025 2.794-1.016 3.836-.749.746-1.758 1.02-2.787 1.03l1.902-1.903c.13-.13.18-.337.121-.512l-.793-2.379a.508.508 0 0 0-.316-.316l-2.379-.793a.511.511 0 0 0-.512.121l-1.904 1.904c.008-1.03.281-2.04 1.03-2.789 1.041-1.041 2.506-1.367 3.837-1.015a.51.51 0 0 0 .48-.131L21.044 7.484a.51.51 0 0 0 .13-.482c-.351-1.331-.026-2.795 1.016-3.838a3.966 3.966 0 0 1 1.786-1.03c.161-.042.328-.043.496-.032zm-9.946 10.062c.117 0 .226.038.329.096l-2.602 2.601a.662.662 0 0 1 .105-.814l1.682-1.682a.675.675 0 0 1 .486-.2zm5.073 3.11 9.699 9.697a.678.678 0 0 1 0 .974l-3.361 3.362a.675.675 0 0 1-.973 0l-9.7-9.7.973-.972 9.7 9.699.707-.707-9.7-9.7.975-.974 9.7 9.7.706-.708-9.699-9.699z" class="color000 svgShape" color="#000" overflow="visible" style="text-indent:0;text-align:start;line-height:125%;text-transform:none;block-progression:tb" font-family="sans-serif" font-weight="400" letter-spacing="0" word-spacing="0"/></g></svg></svg>