<svg xmlns="http://www.w3.org/2000/svg" xmlns:svgjs="http://svgjs.com/svgjs" xmlns:xlink="http://www.w3.org/1999/xlink" width="288" height="288"><svg xmlns="http://www.w3.org/2000/svg" width="288" height="288" enable-background="new 0 0 64 64" viewBox="0 0 64 64"><path fill="#fff" d="M52.902,11H39c0,3.866-3.134,7-7,7c-3.866,0-7-3.134-7-7H11.098C6.073,11,2,15.073,2,20.098		c0,0.599,0.059,1.197,0.177,1.784l4.451,22.254C7.425,48.127,10.93,51,15,51h12l-1,9l12-9h11c4.07,0,7.575-2.873,8.373-6.864
		l4.451-22.254C61.941,21.295,62,20.697,62,20.098C62,15.073,57.927,11,52.902,11z M20,39c-5.523,0-10-4.477-10-10
		c0-5.523,4.477-10,10-10c5.523,0,10,4.477,10,10C30,34.523,25.523,39,20,39z M44,39c-5.523,0-10-4.477-10-10
		c0-5.523,4.477-10,10-10c5.523,0,10,4.477,10,10C54,34.523,49.523,39,44,39z" class="colorf2b0ae svgShape"/><path fill="#fff" d="M52.902,10H39.931C39.436,6.06,36.072,3,32,3s-7.436,3.06-7.931,7H11.098C5.53,10,1,14.53,1,20.098
		c0,0.662,0.066,1.328,0.196,1.981l4.45,22.253C6.536,48.775,10.47,52,15,52h10.883l-0.877,7.89
		c-0.044,0.396,0.152,0.781,0.498,0.979C25.658,60.956,25.829,61,26,61c0.212,0,0.423-0.067,0.6-0.2L38.333,52H49
		c4.53,0,8.464-3.225,9.354-7.668l4.45-22.254C62.934,21.426,63,20.76,63,20.098C63,14.53,58.47,10,52.902,10z M32,5
		c3.309,0,6,2.691,6,6s-2.691,6-6,6s-6-2.691-6-6S28.691,5,32,5z M60.843,21.687l-4.45,22.253C55.689,47.451,52.581,50,49,50H38
		c-0.217,0-0.427,0.07-0.6,0.2l-10.151,7.613l0.745-6.703c0.031-0.282-0.06-0.565-0.249-0.777S27.284,50,27,50H15
		c-3.581,0-6.689-2.549-7.393-6.061l-4.45-22.252C3.053,21.163,3,20.628,3,20.098C3,15.633,6.633,12,11.098,12h12.972
		c0.495,3.94,3.859,7,7.931,7s7.436-3.06,7.931-7h12.972C57.367,12,61,15.633,61,20.098C61,20.628,60.947,21.163,60.843,21.687z" class="colorb1404a svgShape"/><path fill="#fff" d="M20 40c6.065 0 11-4.935 11-11s-4.935-11-11-11S9 22.935 9 29 13.935 40 20 40zM20 20c4.963 0 9 4.037 9 9s-4.037 9-9 9-9-4.037-9-9S15.037 20 20 20zM44 18c-6.065 0-11 4.935-11 11s4.935 11 11 11 11-4.935 11-11S50.065 18 44 18zM44 38c-4.963 0-9-4.037-9-9s4.037-9 9-9 9 4.037 9 9S48.963 38 44 38z" class="colorb1404a svgShape"/><path fill="#fff" d="M16 26c.552 0 1 .448 1 1h2c0-1.654-1.346-3-3-3s-3 1.346-3 3h2C15 26.448 15.448 26 16 26zM24 26c.552 0 1 .448 1 1h2c0-1.654-1.346-3-3-3s-3 1.346-3 3h2C23 26.448 23.448 26 24 26zM16 30h-2c0 3.309 2.691 6 6 6s6-2.691 6-6h-2c0 2.206-1.794 4-4 4S16 32.206 16 30z" class="colorb1404a svgShape"/><rect width="2" height="2" x="39" y="25" fill="#fff" class="colorb1404a svgShape"/><rect width="2" height="2" x="47" y="25" fill="#fff" class="colorb1404a svgShape"/><path fill="#fff" d="M30.553 14.895l.895-1.789c-.505-.253-.885-.659-1.135-1.137C31.266 11.817 32 10.995 32 10c0-1.103-.897-2-2-2s-2 .897-2 2v.764C28 12.523 28.979 14.106 30.553 14.895zM34.553 14.895l.895-1.789c-.505-.253-.885-.659-1.135-1.137C35.266 11.817 36 10.995 36 10c0-1.103-.897-2-2-2s-2 .897-2 2v.764C32 12.523 32.979 14.106 34.553 14.895z" class="colorb1404a svgShape"/><rect width="28" height="2" x="24" y="42" fill="#fff" class="colorb1404a svgShape"/><rect width="40" height="2" x="12" y="46.001" fill="#fff" class="colorb1404a svgShape"/><path fill="#fff" d="M44,30c-2.226,0-4.193,1.418-4.896,3.527l-0.052,0.154l1.896,0.637L41,34.162
		C41.432,32.869,42.637,32,44,32s2.568,0.869,3,2.164l0.052,0.154l1.896-0.637l-0.052-0.152C48.193,31.418,46.226,30,44,30z" class="colorb1404a svgShape"/></svg></svg>