<svg xmlns="http://www.w3.org/2000/svg" xmlns:svgjs="http://svgjs.com/svgjs" xmlns:xlink="http://www.w3.org/1999/xlink" width="288" height="288"><svg xmlns="http://www.w3.org/2000/svg" width="288" height="288" viewBox="0 0 32 32"><g fill="#1c1c1c" class="color1C1C1C svgShape"><path fill="#323f52" d="M16 12a6 6 0 1 0 0 12 6 6 0 0 0 0-12zm0 11a5 5 0 1 1 .001-10.001A5 5 0 0 1 16 23zM28 9a2 2 0 1 0-.001 3.999A2 2 0 0 0 28 9zm0 3a1 1 0 1 1 0-2 1 1 0 0 1 0 2z" class="color000 svgShape"/><path fill="#323f52" d="M16 9a9 9 0 0 0-9 9c0 4.971 4.029 9 9 9s9-4.029 9-9a9 9 0 0 0-9-9zm0 17a8 8 0 1 1 0-16 8 8 0 0 1 0 16z" class="color000 svgShape"/><path fill="#323f52" d="M30 7h-7V5a2 2 0 0 0-2-2H11a2 2 0 0 0-2 2v2H2a2 2 0 0 0-2 2v18a2 2 0 0 0 2 2h28a2 2 0 0 0 2-2V9a2 2 0 0 0-2-2zm1 19a2 2 0 0 1-2 2H3a2 2 0 0 1-2-2V10a2 2 0 0 1 2-2h7V6a2 2 0 0 1 2-2h8a2 2 0 0 1 2 2v2h7a2 2 0 0 1 2 2v16z" class="color000 svgShape"/></g></svg></svg>